<svg width="141" height="21" viewBox="0 0 141 21" fill="none" xmlns="http://www.w3.org/2000/svg">
<g id="Heading">
<path d="M10.2615 20.5C3.93356 20.5 0 16.558 0 10.5C0 4.44203 3.93356 0.5 10.2615 0.5C16.7319 0.5 20.6369 4.44203 20.6369 10.5C20.6369 16.558 16.7319 20.5 10.2615 20.5ZM10.2615 16.3261C14.4516 16.3261 16.0763 14.8188 16.0763 10.5C16.0763 6.18116 14.4516 4.67391 10.2615 4.67391C6.07136 4.67391 4.53215 6.18116 4.53215 10.5C4.53215 14.8188 6.07136 16.3261 10.2615 16.3261Z" fill="#3563E9"/>
<path d="M26.7771 20.2101H22.5015V5.6884H26.4636V10.0942H26.6916C27.0336 7.65942 28.4589 5.39855 32.0504 5.39855C35.3568 5.39855 37.0386 7.45652 37.3521 10.1522H37.6087C37.9507 7.68841 39.4044 5.39855 43.0814 5.39855C46.7585 5.39855 48.5542 7.86232 48.5542 11.1667V20.2101H44.2786V12.6159C44.2786 10.2101 43.452 9.31159 41.0006 9.31159C38.4068 9.31159 37.6657 10.3551 37.6657 12.8768V20.2101H33.3901V12.6159C33.3901 10.2101 32.5634 9.31159 30.1121 9.31159C27.5182 9.31159 26.7771 10.3551 26.7771 12.8768V20.2101Z" fill="#3563E9"/>
<path d="M54.6893 20.2101H50.7272V0.789855H55.0028V9.54348H55.2308C55.7154 7.1087 57.4542 5.39855 60.8461 5.39855C65.1217 5.39855 67.5161 8.32609 67.5161 12.9638C67.5161 17.5435 65.0932 20.5 60.6466 20.5C57.3401 20.5 55.4589 19.0507 54.9458 16.1812H54.6893V20.2101ZM55.0028 13.0507C55.0028 15.5725 56.4565 16.529 59.1644 16.529C61.9293 16.529 63.1835 15.6014 63.1835 12.9638C63.1835 10.2971 61.9293 9.36957 59.1929 9.36957C56.428 9.36957 55.0028 10.2971 55.0028 12.8188V13.0507Z" fill="#3563E9"/>
<path d="M83.4688 20.5C77.1694 20.5 73.2643 16.558 73.2643 10.5C73.2643 4.44203 77.1694 0.5 83.4688 0.5C89.3976 0.5 93.2172 3.51449 93.2172 8.44203V8.87681H88.457V8.44203C88.457 5.8913 87.0318 4.67391 83.5543 4.67391C79.3642 4.67391 77.7965 6.18116 77.7965 10.5C77.7965 14.8188 79.3642 16.3261 83.5543 16.3261C87.0318 16.3261 88.457 15.1087 88.457 12.558V12.1232H93.2172V12.558C93.2172 17.4855 89.4261 20.5 83.4688 20.5Z" fill="#3563E9"/>
<path d="M99.4596 20.5C96.3811 20.5 94.5284 19.0507 94.5284 16.6159C94.5284 14.471 96.0961 13.1377 99.146 12.8188L105.274 12.1812V11.6304C105.274 9.74638 104.448 9.22464 102.167 9.22464C100.001 9.22464 99.1175 9.80435 99.1175 11.4565V11.5725H94.8134V11.4855C94.8134 7.8913 97.7778 5.39855 102.481 5.39855C107.241 5.39855 109.493 7.8913 109.493 11.6884V20.2101H105.502V16.8768H105.274C104.619 19.1377 102.624 20.5 99.4596 20.5ZM98.8325 16.3261C98.8325 17.1087 99.4311 17.4275 100.685 17.4275C103.593 17.4275 105.16 16.7319 105.274 14.6739L100.315 15.2536C99.2885 15.3406 98.8325 15.6304 98.8325 16.3261Z" fill="#3563E9"/>
<path d="M115.936 20.2101H111.66V5.6884H115.622V9.54348H115.879C116.278 7.19565 117.789 5.39855 120.667 5.39855C123.86 5.39855 125.171 7.63043 125.171 10.471V12.8768H120.896V11.3696C120.896 9.77536 120.268 9.07971 118.53 9.07971C116.62 9.07971 115.936 9.97826 115.936 11.8043V20.2101Z" fill="#3563E9"/>
<path d="M133.931 20.5C129.114 20.5 126.463 18.587 126.463 15.2246V15.1377H130.739V15.3986C130.739 16.7029 131.537 17.0507 133.959 17.0507C136.24 17.0507 136.781 16.6739 136.781 15.8043C136.781 14.9928 136.354 14.7609 134.672 14.529L130.653 14.0362C127.803 13.7174 126.206 12.413 126.206 9.97826C126.206 7.42754 128.344 5.39855 133.247 5.39855C137.922 5.39855 140.572 7.19565 140.572 10.7319V10.8188H136.297V10.6449C136.297 9.45652 135.727 8.84783 133.104 8.84783C130.967 8.84783 130.425 9.22464 130.425 10.1522C130.425 10.9058 130.824 11.2246 132.705 11.4565L135.755 11.8333C139.575 12.2681 141 13.5725 141 15.9783C141 18.7029 138.349 20.5 133.931 20.5Z" fill="#3563E9"/>
</g>
</svg>
